<mxfile host="drawio-plugin" modified="2022-09-17T15:42:40.353Z" agent="5.0 (Windows NT 6.2; Win64; x64) AppleWebKit/537.36 (KHTML, like Gecko) Chrome/98.0.4758.102 Safari/537.36" etag="eJcrzVJbPMabhG7MpwPz" version="15.5.4" type="embed"><diagram id="C5RBs43oDa-KdzZeNtuy" name="Page-1"><mxGraphModel dx="889" dy="2607" grid="1" gridSize="10" guides="1" tooltips="1" connect="1" arrows="1" fold="1" page="1" pageScale="1" pageWidth="827" pageHeight="1169" math="0" shadow="0"><root><mxCell id="WIyWlLk6GJQsqaUBKTNV-0"/><mxCell id="WIyWlLk6GJQsqaUBKTNV-1" parent="WIyWlLk6GJQsqaUBKTNV-0"/><mxCell id="x4CzHmT4jv46Xul65Cwn-0" value="GameField" style="swimlane;fontStyle=1;align=center;verticalAlign=top;childLayout=stackLayout;horizontal=1;startSize=26;horizontalStack=0;resizeParent=1;resizeParentMax=0;resizeLast=0;collapsible=1;marginBottom=0;" parent="WIyWlLk6GJQsqaUBKTNV-1" vertex="1"><mxGeometry x="30" y="-2095" width="160" height="190" as="geometry"/></mxCell><mxCell id="x4CzHmT4jv46Xul65Cwn-1" value="int height;&#10;int width;&#10;string colour;&#10;int score;&#10;int level;&#10;int hp; &#10;" style="text;strokeColor=none;fillColor=none;align=left;verticalAlign=top;spacingLeft=4;spacingRight=4;overflow=hidden;rotatable=0;points=[[0,0.5],[1,0.5]];portConstraint=eastwest;" parent="x4CzHmT4jv46Xul65Cwn-0" vertex="1"><mxGeometry y="26" width="160" height="104" as="geometry"/></mxCell><mxCell id="x4CzHmT4jv46Xul65Cwn-2" value="" style="line;strokeWidth=1;fillColor=none;align=left;verticalAlign=middle;spacingTop=-1;spacingLeft=3;spacingRight=3;rotatable=0;labelPosition=right;points=[];portConstraint=eastwest;" parent="x4CzHmT4jv46Xul65Cwn-0" vertex="1"><mxGeometry y="130" width="160" height="8" as="geometry"/></mxCell><mxCell id="x4CzHmT4jv46Xul65Cwn-3" value="creatPlayingFild();&#10;goNextLevel();&#10;" style="text;strokeColor=none;fillColor=none;align=left;verticalAlign=top;spacingLeft=4;spacingRight=4;overflow=hidden;rotatable=0;points=[[0,0.5],[1,0.5]];portConstraint=eastwest;" parent="x4CzHmT4jv46Xul65Cwn-0" vertex="1"><mxGeometry y="138" width="160" height="52" as="geometry"/></mxCell><mxCell id="x4CzHmT4jv46Xul65Cwn-4" value="Strike-Runner Game" style="swimlane;fontStyle=1;align=center;verticalAlign=top;childLayout=stackLayout;horizontal=1;startSize=26;horizontalStack=0;resizeParent=1;resizeParentMax=0;resizeLast=0;collapsible=1;marginBottom=0;" parent="WIyWlLk6GJQsqaUBKTNV-1" vertex="1"><mxGeometry x="30" y="-2300" width="160" height="120" as="geometry"/></mxCell><mxCell id="x4CzHmT4jv46Xul65Cwn-5" value="string nickname;&#10;" style="text;strokeColor=none;fillColor=none;align=left;verticalAlign=top;spacingLeft=4;spacingRight=4;overflow=hidden;rotatable=0;points=[[0,0.5],[1,0.5]];portConstraint=eastwest;" parent="x4CzHmT4jv46Xul65Cwn-4" vertex="1"><mxGeometry y="26" width="160" height="26" as="geometry"/></mxCell><mxCell id="x4CzHmT4jv46Xul65Cwn-6" value="" style="line;strokeWidth=1;fillColor=none;align=left;verticalAlign=middle;spacingTop=-1;spacingLeft=3;spacingRight=3;rotatable=0;labelPosition=right;points=[];portConstraint=eastwest;" parent="x4CzHmT4jv46Xul65Cwn-4" vertex="1"><mxGeometry y="52" width="160" height="8" as="geometry"/></mxCell><mxCell id="x4CzHmT4jv46Xul65Cwn-7" value="startGame();&#10;finishGame();&#10;displayResultGame();" style="text;strokeColor=none;fillColor=none;align=left;verticalAlign=top;spacingLeft=4;spacingRight=4;overflow=hidden;rotatable=0;points=[[0,0.5],[1,0.5]];portConstraint=eastwest;" parent="x4CzHmT4jv46Xul65Cwn-4" vertex="1"><mxGeometry y="60" width="160" height="60" as="geometry"/></mxCell><mxCell id="x4CzHmT4jv46Xul65Cwn-8" value="" style="endArrow=none;html=1;startArrow=open;startFill=0;exitX=0.5;exitY=0;exitDx=0;exitDy=0;" parent="WIyWlLk6GJQsqaUBKTNV-1" source="x4CzHmT4jv46Xul65Cwn-0" target="x4CzHmT4jv46Xul65Cwn-7" edge="1"><mxGeometry relative="1" as="geometry"><mxPoint x="30" y="-2135" as="sourcePoint"/><mxPoint x="108" y="-2170" as="targetPoint"/></mxGeometry></mxCell><mxCell id="x4CzHmT4jv46Xul65Cwn-9" value="use" style="text;html=1;strokeColor=none;fillColor=none;align=center;verticalAlign=middle;whiteSpace=wrap;rounded=0;" parent="WIyWlLk6GJQsqaUBKTNV-1" vertex="1"><mxGeometry x="110" y="-2145" width="40" height="20" as="geometry"/></mxCell><mxCell id="x4CzHmT4jv46Xul65Cwn-14" value="Player" style="swimlane;fontStyle=1;align=center;verticalAlign=top;childLayout=stackLayout;horizontal=1;startSize=26;horizontalStack=0;resizeParent=1;resizeParentMax=0;resizeLast=0;collapsible=1;marginBottom=0;" parent="WIyWlLk6GJQsqaUBKTNV-1" vertex="1"><mxGeometry x="290" y="-2300" width="160" height="180" as="geometry"/></mxCell><mxCell id="x4CzHmT4jv46Xul65Cwn-15" value="int height;&#10;int width;&#10;int location_x;&#10;int location_y;&#10;int speed;&#10;int hp" style="text;strokeColor=none;fillColor=none;align=left;verticalAlign=top;spacingLeft=4;spacingRight=4;overflow=hidden;rotatable=0;points=[[0,0.5],[1,0.5]];portConstraint=eastwest;" parent="x4CzHmT4jv46Xul65Cwn-14" vertex="1"><mxGeometry y="26" width="160" height="94" as="geometry"/></mxCell><mxCell id="x4CzHmT4jv46Xul65Cwn-16" value="" style="line;strokeWidth=1;fillColor=none;align=left;verticalAlign=middle;spacingTop=-1;spacingLeft=3;spacingRight=3;rotatable=0;labelPosition=right;points=[];portConstraint=eastwest;" parent="x4CzHmT4jv46Xul65Cwn-14" vertex="1"><mxGeometry y="120" width="160" height="8" as="geometry"/></mxCell><mxCell id="x4CzHmT4jv46Xul65Cwn-17" value="move();&#10;strike();&#10;die();" style="text;strokeColor=none;fillColor=none;align=left;verticalAlign=top;spacingLeft=4;spacingRight=4;overflow=hidden;rotatable=0;points=[[0,0.5],[1,0.5]];portConstraint=eastwest;" parent="x4CzHmT4jv46Xul65Cwn-14" vertex="1"><mxGeometry y="128" width="160" height="52" as="geometry"/></mxCell><mxCell id="x4CzHmT4jv46Xul65Cwn-18" value="1" style="endArrow=open;html=1;endSize=12;startArrow=diamondThin;startSize=14;startFill=0;edgeStyle=orthogonalEdgeStyle;align=left;verticalAlign=bottom;rounded=0;exitX=1;exitY=0.5;exitDx=0;exitDy=0;entryX=0;entryY=0.5;entryDx=0;entryDy=0;" parent="WIyWlLk6GJQsqaUBKTNV-1" source="x4CzHmT4jv46Xul65Cwn-1" target="x4CzHmT4jv46Xul65Cwn-15" edge="1"><mxGeometry x="-1" y="3" relative="1" as="geometry"><mxPoint x="330" y="-2180" as="sourcePoint"/><mxPoint x="490" y="-2180" as="targetPoint"/></mxGeometry></mxCell><mxCell id="x4CzHmT4jv46Xul65Cwn-19" value="create" style="text;html=1;strokeColor=none;fillColor=none;align=center;verticalAlign=middle;whiteSpace=wrap;rounded=0;rotation=0;" parent="WIyWlLk6GJQsqaUBKTNV-1" vertex="1"><mxGeometry x="230" y="-2250" width="40" height="20" as="geometry"/></mxCell><mxCell id="x4CzHmT4jv46Xul65Cwn-24" value="Bullet" style="swimlane;fontStyle=1;align=center;verticalAlign=top;childLayout=stackLayout;horizontal=1;startSize=26;horizontalStack=0;resizeParent=1;resizeParentMax=0;resizeLast=0;collapsible=1;marginBottom=0;" parent="WIyWlLk6GJQsqaUBKTNV-1" vertex="1"><mxGeometry x="570" y="-2290" width="120" height="170" as="geometry"/></mxCell><mxCell id="x4CzHmT4jv46Xul65Cwn-25" value="int height;&#10;int width; &#10;int location_x&#10;int location_y;&#10;int speed&#10;" style="text;strokeColor=none;fillColor=none;align=left;verticalAlign=top;spacingLeft=4;spacingRight=4;overflow=hidden;rotatable=0;points=[[0,0.5],[1,0.5]];portConstraint=eastwest;" parent="x4CzHmT4jv46Xul65Cwn-24" vertex="1"><mxGeometry y="26" width="120" height="94" as="geometry"/></mxCell><mxCell id="x4CzHmT4jv46Xul65Cwn-26" value="" style="line;strokeWidth=1;fillColor=none;align=left;verticalAlign=middle;spacingTop=-1;spacingLeft=3;spacingRight=3;rotatable=0;labelPosition=right;points=[];portConstraint=eastwest;" parent="x4CzHmT4jv46Xul65Cwn-24" vertex="1"><mxGeometry y="120" width="120" height="8" as="geometry"/></mxCell><mxCell id="x4CzHmT4jv46Xul65Cwn-27" value="destroy();&#10;getDamage();" style="text;strokeColor=none;fillColor=none;align=left;verticalAlign=top;spacingLeft=4;spacingRight=4;overflow=hidden;rotatable=0;points=[[0,0.5],[1,0.5]];portConstraint=eastwest;" parent="x4CzHmT4jv46Xul65Cwn-24" vertex="1"><mxGeometry y="128" width="120" height="42" as="geometry"/></mxCell><mxCell id="x4CzHmT4jv46Xul65Cwn-28" value="1" style="endArrow=open;html=1;endSize=12;startArrow=diamondThin;startSize=14;startFill=0;edgeStyle=orthogonalEdgeStyle;align=left;verticalAlign=bottom;rounded=0;exitX=1.006;exitY=0.715;exitDx=0;exitDy=0;entryX=-0.003;entryY=0.615;entryDx=0;entryDy=0;exitPerimeter=0;entryPerimeter=0;" parent="WIyWlLk6GJQsqaUBKTNV-1" source="x4CzHmT4jv46Xul65Cwn-15" target="x4CzHmT4jv46Xul65Cwn-25" edge="1"><mxGeometry x="-1" y="3" relative="1" as="geometry"><mxPoint x="200" y="-2007" as="sourcePoint"/><mxPoint x="300" y="-2217" as="targetPoint"/></mxGeometry></mxCell><mxCell id="x4CzHmT4jv46Xul65Cwn-29" value="create" style="text;html=1;strokeColor=none;fillColor=none;align=center;verticalAlign=middle;whiteSpace=wrap;rounded=0;rotation=0;" parent="WIyWlLk6GJQsqaUBKTNV-1" vertex="1"><mxGeometry x="470" y="-2230" width="40" height="20" as="geometry"/></mxCell><mxCell id="x4CzHmT4jv46Xul65Cwn-30" value="Enemy" style="swimlane;fontStyle=1;align=center;verticalAlign=top;childLayout=stackLayout;horizontal=1;startSize=26;horizontalStack=0;resizeParent=1;resizeParentMax=0;resizeLast=0;collapsible=1;marginBottom=0;" parent="WIyWlLk6GJQsqaUBKTNV-1" vertex="1"><mxGeometry x="290" y="-2090" width="160" height="160" as="geometry"/></mxCell><mxCell id="x4CzHmT4jv46Xul65Cwn-31" value="int height;&#10;int width;&#10;int location_x;&#10;int location_y;&#10;int hp" style="text;strokeColor=none;fillColor=none;align=left;verticalAlign=top;spacingLeft=4;spacingRight=4;overflow=hidden;rotatable=0;points=[[0,0.5],[1,0.5]];portConstraint=eastwest;" parent="x4CzHmT4jv46Xul65Cwn-30" vertex="1"><mxGeometry y="26" width="160" height="84" as="geometry"/></mxCell><mxCell id="x4CzHmT4jv46Xul65Cwn-32" value="" style="line;strokeWidth=1;fillColor=none;align=left;verticalAlign=middle;spacingTop=-1;spacingLeft=3;spacingRight=3;rotatable=0;labelPosition=right;points=[];portConstraint=eastwest;" parent="x4CzHmT4jv46Xul65Cwn-30" vertex="1"><mxGeometry y="110" width="160" height="8" as="geometry"/></mxCell><mxCell id="x4CzHmT4jv46Xul65Cwn-33" value="strike();&#10;die();" style="text;strokeColor=none;fillColor=none;align=left;verticalAlign=top;spacingLeft=4;spacingRight=4;overflow=hidden;rotatable=0;points=[[0,0.5],[1,0.5]];portConstraint=eastwest;" parent="x4CzHmT4jv46Xul65Cwn-30" vertex="1"><mxGeometry y="118" width="160" height="42" as="geometry"/></mxCell><mxCell id="x4CzHmT4jv46Xul65Cwn-34" value="1" style="endArrow=open;html=1;endSize=12;startArrow=diamondThin;startSize=14;startFill=0;edgeStyle=orthogonalEdgeStyle;align=left;verticalAlign=bottom;rounded=0;exitX=1.006;exitY=0.816;exitDx=0;exitDy=0;exitPerimeter=0;" parent="WIyWlLk6GJQsqaUBKTNV-1" source="x4CzHmT4jv46Xul65Cwn-1" edge="1"><mxGeometry x="-1" y="3" relative="1" as="geometry"><mxPoint x="200" y="-2007" as="sourcePoint"/><mxPoint x="290" y="-1984" as="targetPoint"/></mxGeometry></mxCell><mxCell id="x4CzHmT4jv46Xul65Cwn-35" value="create" style="text;html=1;strokeColor=none;fillColor=none;align=center;verticalAlign=middle;whiteSpace=wrap;rounded=0;rotation=0;" parent="WIyWlLk6GJQsqaUBKTNV-1" vertex="1"><mxGeometry x="220" y="-2010" width="40" height="20" as="geometry"/></mxCell><mxCell id="x4CzHmT4jv46Xul65Cwn-40" value="create" style="text;html=1;strokeColor=none;fillColor=none;align=center;verticalAlign=middle;whiteSpace=wrap;rounded=0;rotation=0;" parent="WIyWlLk6GJQsqaUBKTNV-1" vertex="1"><mxGeometry x="480" y="-2040" width="40" height="20" as="geometry"/></mxCell><mxCell id="0" value="1" style="endArrow=open;html=1;endSize=12;startArrow=diamondThin;startSize=14;startFill=0;edgeStyle=orthogonalEdgeStyle;align=left;verticalAlign=bottom;rounded=0;entryX=1;entryY=0.5;entryDx=0;entryDy=0;" edge="1" parent="WIyWlLk6GJQsqaUBKTNV-1" target="x4CzHmT4jv46Xul65Cwn-27"><mxGeometry x="-1" y="3" relative="1" as="geometry"><mxPoint x="450" y="-2020" as="sourcePoint"/><mxPoint x="559.6400000000001" y="-2166.19" as="targetPoint"/><Array as="points"><mxPoint x="730" y="-2020"/><mxPoint x="730" y="-2141"/></Array></mxGeometry></mxCell></root></mxGraphModel></diagram></mxfile>